<svg class="svg-icon" style="width: 1em; height: 1em;vertical-align: middle;fill: black;overflow: hidden;" viewBox="0 0 1024 1024" version="1.1" xmlns="http://www.w3.org/2000/svg"><path d="M809.6 692.8c-53.6 0-96.8-43.2-96.8-96s43.2-96 96.8-96 96.8 43.2 96.8 96-43.2 96-96.8 96z m0-160.8c-36 0-64.8 28.8-64.8 64s28.8 64 64.8 64 64.8-28.8 64.8-64-29.6-64-64.8-64zM214.4 692.8c-53.6 0-96.8-43.2-96.8-96s43.2-96 96.8-96 96.8 43.2 96.8 96-43.2 96-96.8 96z m0-160.8c-36 0-64.8 28.8-64.8 64s28.8 64 64.8 64 64.8-28.8 64.8-64-28.8-64-64.8-64zM512 196.8c-53.6 0-96.8-43.2-96.8-96S458.4 4.8 512 4.8s96.8 43.2 96.8 96-43.2 96-96.8 96z m0-160.8c-36 0-64.8 28.8-64.8 64s28.8 64 64.8 64 64.8-28.8 64.8-64-28.8-64-64.8-64zM809.6 1020c-74.4 0-144.8-17.6-198.4-50.4-4-2.4-6.4-5.6-7.2-10.4-3.2-15.2-4.8-29.6-4.8-44.8 0-60.8 26.4-118.4 72-158.4 38.4-33.6 87.2-51.2 138.4-51.2 116 0 210.4 94.4 210.4 209.6 0 15.2-1.6 30.4-4.8 44.8-0.8 4-4 8-7.2 10.4-40 24-89.6 40-143.2 46.4-18.4 3.2-36.8 4-55.2 4z m-176-74.4c48 27.2 110.4 42.4 176 42.4 16.8 0 34.4-0.8 51.2-3.2 46.4-5.6 89.6-19.2 124.8-39.2 1.6-10.4 3.2-20.8 3.2-31.2 0-97.6-80-177.6-178.4-177.6-43.2 0-84.8 15.2-117.6 44-39.2 33.6-61.6 82.4-61.6 133.6 0 10.4 0.8 20.8 2.4 31.2z"  /><path d="M854.4 945.6c-4 0-7.2-3.2-8-7.2-0.8-4 2.4-8 7.2-8.8 28.8-3.2 54.4-10.4 78.4-20-2.4-64.8-56.8-116.8-122.4-116.8-4.8 0-8-3.2-8-8s3.2-8 8-8c76 0 138.4 61.6 138.4 137.6 0 3.2-1.6 6.4-4.8 7.2-26.4 11.2-55.2 19.2-87.2 23.2-0.8 0.8-0.8 0.8-1.6 0.8zM214.4 1020c-18.4 0-36.8-0.8-55.2-3.2-53.6-6.4-103.2-22.4-143.2-46.4-4-2.4-6.4-5.6-7.2-10.4-3.2-14.4-4.8-29.6-4.8-44.8 0-115.2 94.4-209.6 210.4-209.6 51.2 0 100 18.4 138.4 51.2 45.6 40 72 97.6 72 158.4 0 15.2-1.6 30.4-4.8 44.8-0.8 4-4 8-7.2 10.4-53.6 32-124 49.6-198.4 49.6z m-175.2-74.4c35.2 20 78.4 33.6 124.8 39.2 16.8 2.4 33.6 3.2 51.2 3.2 65.6 0 127.2-15.2 176-42.4 1.6-10.4 3.2-20.8 3.2-31.2 0-51.2-22.4-100-61.6-133.6-32.8-28-74.4-44-117.6-44-98.4 0-178.4 80-178.4 177.6-0.8 10.4 0 20.8 2.4 31.2z"  /><path d="M214.4 948c-4.8 0-8-3.2-8-8s3.2-8 8-8c44.8 0 86.4-8 122.4-22.4-1.6-33.6-16.8-64.8-41.6-86.4-22.4-19.2-51.2-30.4-80.8-30.4-4.8 0-8-3.2-8-8s3.2-8 8-8c33.6 0 65.6 12 91.2 33.6 30.4 26.4 47.2 64 47.2 104 0 3.2-1.6 6.4-4.8 8-38.4 16.8-84.8 25.6-133.6 25.6zM512 524c-74.4 0-144.8-17.6-198.4-50.4-4-2.4-6.4-5.6-7.2-10.4a213.264 213.264 0 0 1-2.4-76.8c15.2-101.6 104.8-177.6 208-177.6s192.8 76 208 177.6c1.6 10.4 2.4 21.6 2.4 32 0 15.2-1.6 30.4-4.8 44.8-0.8 4-4 8-7.2 10.4-53.6 32-124 50.4-198.4 50.4z m-176-74.4c48 27.2 110.4 42.4 176 42.4s127.2-15.2 176-42.4c1.6-10.4 3.2-20.8 3.2-31.2 0-8.8-0.8-18.4-2.4-27.2-12.8-85.6-88.8-150.4-176-150.4S349.6 305.6 336 391.2c-1.6 8.8-2.4 18.4-2.4 27.2 0 10.4 0.8 20.8 2.4 31.2z"  /><path d="M512 452c-4.8 0-8-3.2-8-8s3.2-8 8-8c44.8 0 86.4-8 122.4-22.4 0-4.8-0.8-8.8-1.6-13.6C624 340.8 572 296.8 512 296.8c-4.8 0-8-3.2-8-8s3.2-8 8-8c68 0 126.4 50.4 136.8 116.8 0.8 7.2 1.6 13.6 1.6 20.8 0 3.2-1.6 6.4-4.8 8-38.4 16.8-84.8 25.6-133.6 25.6zM512 695.2c-8.8 0-16-7.2-16-16V562.4c0-8.8 7.2-16 16-16s16 7.2 16 16v116.8c0 8.8-7.2 16-16 16z"  /><path d="M410.4 780.8c-4.8 0-8.8-1.6-12-5.6-5.6-6.4-5.6-16.8 1.6-22.4l101.6-90.4c6.4-5.6 15.2-5.6 21.6 0L624 752.8c6.4 5.6 7.2 16 1.6 22.4-5.6 6.4-16 7.2-22.4 1.6L512 695.2 420.8 776c-2.4 3.2-6.4 4.8-10.4 4.8z"  /></svg>